<mxfile host="app.diagrams.net" agent="Mozilla/5.0 (Windows NT 10.0; Win64; x64) AppleWebKit/537.36 (KHTML, like Gecko) Chrome/140.0.0.0 Safari/537.36 Edg/140.0.0.0" version="28.2.3">
  <diagram name="Page-1" id="NsuGdaQPpmigLW5I2gNt">
    <mxGraphModel dx="864" dy="482" grid="1" gridSize="10" guides="1" tooltips="1" connect="1" arrows="1" fold="1" page="1" pageScale="1" pageWidth="850" pageHeight="1100" math="0" shadow="0">
      <root>
        <mxCell id="0" />
        <mxCell id="1" parent="0" />
        <mxCell id="-qfLBwfiambPcsDSt4Ml-1" value="Bài 1" style="swimlane;childLayout=stackLayout;resizeParent=1;resizeParentMax=0;startSize=20;html=1;" vertex="1" parent="1">
          <mxGeometry x="360" y="150" width="820" height="800" as="geometry" />
        </mxCell>
        <mxCell id="-qfLBwfiambPcsDSt4Ml-2" value="Độc giả" style="swimlane;startSize=20;html=1;" vertex="1" parent="-qfLBwfiambPcsDSt4Ml-1">
          <mxGeometry y="20" width="390" height="780" as="geometry" />
        </mxCell>
        <mxCell id="-qfLBwfiambPcsDSt4Ml-3" value="" style="ellipse;fillColor=strokeColor;html=1;" vertex="1" parent="-qfLBwfiambPcsDSt4Ml-2">
          <mxGeometry x="100" y="30" width="20" height="20" as="geometry" />
        </mxCell>
        <mxCell id="-qfLBwfiambPcsDSt4Ml-4" value="Nhap ma so sach/ tap chi&amp;nbsp;" style="html=1;align=center;verticalAlign=top;rounded=1;absoluteArcSize=1;arcSize=110;dashed=0;whiteSpace=wrap;" vertex="1" parent="-qfLBwfiambPcsDSt4Ml-2">
          <mxGeometry y="220" width="110" height="40" as="geometry" />
        </mxCell>
        <mxCell id="-qfLBwfiambPcsDSt4Ml-5" value="Chon loai tim kiem" style="html=1;align=center;verticalAlign=top;rounded=1;absoluteArcSize=1;arcSize=120;dashed=0;whiteSpace=wrap;" vertex="1" parent="-qfLBwfiambPcsDSt4Ml-2">
          <mxGeometry x="140" y="220" width="120" height="40" as="geometry" />
        </mxCell>
        <mxCell id="-qfLBwfiambPcsDSt4Ml-6" value="" style="rhombus;whiteSpace=wrap;html=1;" vertex="1" parent="-qfLBwfiambPcsDSt4Ml-2">
          <mxGeometry x="190" y="160" width="40" height="40" as="geometry" />
        </mxCell>
        <mxCell id="-qfLBwfiambPcsDSt4Ml-7" value="Nhap thong tin can truy van" style="html=1;align=center;verticalAlign=top;rounded=1;absoluteArcSize=1;arcSize=120;dashed=0;whiteSpace=wrap;" vertex="1" parent="-qfLBwfiambPcsDSt4Ml-2">
          <mxGeometry x="150" y="310" width="120" height="40" as="geometry" />
        </mxCell>
        <mxCell id="-qfLBwfiambPcsDSt4Ml-8" value="Liet ke danh sach ket qua" style="html=1;align=center;verticalAlign=top;rounded=1;absoluteArcSize=1;arcSize=120;dashed=0;whiteSpace=wrap;" vertex="1" parent="-qfLBwfiambPcsDSt4Ml-2">
          <mxGeometry x="160" y="390" width="120" height="40" as="geometry" />
        </mxCell>
        <mxCell id="-qfLBwfiambPcsDSt4Ml-9" value="Chon 1 thanh phan" style="html=1;align=center;verticalAlign=top;rounded=1;absoluteArcSize=1;arcSize=120;dashed=0;whiteSpace=wrap;" vertex="1" parent="-qfLBwfiambPcsDSt4Ml-2">
          <mxGeometry x="150" y="470" width="120" height="40" as="geometry" />
        </mxCell>
        <mxCell id="-qfLBwfiambPcsDSt4Ml-10" value="" style="rhombus;whiteSpace=wrap;html=1;" vertex="1" parent="-qfLBwfiambPcsDSt4Ml-2">
          <mxGeometry x="185" y="545" width="50" height="40" as="geometry" />
        </mxCell>
        <mxCell id="-qfLBwfiambPcsDSt4Ml-11" value="Trinh bay thong tin sach" style="html=1;align=center;verticalAlign=top;rounded=1;absoluteArcSize=1;arcSize=120;dashed=0;whiteSpace=wrap;" vertex="1" parent="-qfLBwfiambPcsDSt4Ml-2">
          <mxGeometry x="150" y="620" width="120" height="40" as="geometry" />
        </mxCell>
        <mxCell id="-qfLBwfiambPcsDSt4Ml-12" value="" style="rhombus;whiteSpace=wrap;html=1;" vertex="1" parent="-qfLBwfiambPcsDSt4Ml-2">
          <mxGeometry x="32.5" y="320" width="45" height="40" as="geometry" />
        </mxCell>
        <mxCell id="-qfLBwfiambPcsDSt4Ml-13" value="Trinh bay thong tin muon/tra" style="html=1;align=center;verticalAlign=top;rounded=1;absoluteArcSize=1;arcSize=120;dashed=0;whiteSpace=wrap;" vertex="1" parent="-qfLBwfiambPcsDSt4Ml-2">
          <mxGeometry x="5" y="410" width="120" height="40" as="geometry" />
        </mxCell>
        <mxCell id="-qfLBwfiambPcsDSt4Ml-14" value="" style="ellipse;html=1;shape=endState;fillColor=strokeColor;" vertex="1" parent="-qfLBwfiambPcsDSt4Ml-2">
          <mxGeometry x="47.5" y="700" width="30" height="30" as="geometry" />
        </mxCell>
        <mxCell id="-qfLBwfiambPcsDSt4Ml-15" value="" style="rhombus;whiteSpace=wrap;html=1;" vertex="1" parent="-qfLBwfiambPcsDSt4Ml-2">
          <mxGeometry x="185" y="700" width="50" height="30" as="geometry" />
        </mxCell>
        <mxCell id="-qfLBwfiambPcsDSt4Ml-16" value="" style="endArrow=open;html=1;rounded=0;align=center;verticalAlign=top;endFill=0;labelBackgroundColor=none;endSize=6;entryX=0.5;entryY=0;entryDx=0;entryDy=0;" edge="1" parent="-qfLBwfiambPcsDSt4Ml-2" target="-qfLBwfiambPcsDSt4Ml-6">
          <mxGeometry relative="1" as="geometry">
            <mxPoint x="110" y="110" as="sourcePoint" />
            <mxPoint x="149" y="185" as="targetPoint" />
          </mxGeometry>
        </mxCell>
        <mxCell id="-qfLBwfiambPcsDSt4Ml-17" value="" style="endArrow=open;html=1;rounded=0;align=center;verticalAlign=top;endFill=0;labelBackgroundColor=none;endSize=6;exitX=0.5;exitY=1;exitDx=0;exitDy=0;entryX=0.592;entryY=0.025;entryDx=0;entryDy=0;entryPerimeter=0;" edge="1" parent="-qfLBwfiambPcsDSt4Ml-2" source="-qfLBwfiambPcsDSt4Ml-6" target="-qfLBwfiambPcsDSt4Ml-5">
          <mxGeometry relative="1" as="geometry">
            <mxPoint x="200" y="190" as="sourcePoint" />
            <mxPoint x="200" y="220" as="targetPoint" />
          </mxGeometry>
        </mxCell>
        <mxCell id="-qfLBwfiambPcsDSt4Ml-18" value="" style="endArrow=none;startArrow=none;endFill=0;startFill=0;endSize=8;html=1;verticalAlign=bottom;labelBackgroundColor=none;strokeWidth=3;rounded=0;" edge="1" parent="-qfLBwfiambPcsDSt4Ml-2">
          <mxGeometry width="160" relative="1" as="geometry">
            <mxPoint x="40" y="110" as="sourcePoint" />
            <mxPoint x="200" y="110" as="targetPoint" />
          </mxGeometry>
        </mxCell>
        <mxCell id="-qfLBwfiambPcsDSt4Ml-19" value="" style="endArrow=open;html=1;rounded=0;align=center;verticalAlign=top;endFill=0;labelBackgroundColor=none;endSize=6;entryX=0.5;entryY=0;entryDx=0;entryDy=0;" edge="1" parent="-qfLBwfiambPcsDSt4Ml-2" target="-qfLBwfiambPcsDSt4Ml-7">
          <mxGeometry relative="1" as="geometry">
            <mxPoint x="209" y="260" as="sourcePoint" />
            <mxPoint x="209" y="310" as="targetPoint" />
          </mxGeometry>
        </mxCell>
        <mxCell id="-qfLBwfiambPcsDSt4Ml-20" value="" style="endArrow=open;html=1;rounded=0;align=center;verticalAlign=top;endFill=0;labelBackgroundColor=none;endSize=6;entryX=0.417;entryY=-0.05;entryDx=0;entryDy=0;exitX=0.5;exitY=1;exitDx=0;exitDy=0;entryPerimeter=0;" edge="1" parent="-qfLBwfiambPcsDSt4Ml-2" source="-qfLBwfiambPcsDSt4Ml-7" target="-qfLBwfiambPcsDSt4Ml-8">
          <mxGeometry relative="1" as="geometry">
            <mxPoint x="209.5" y="360" as="sourcePoint" />
            <mxPoint x="210.5" y="410" as="targetPoint" />
          </mxGeometry>
        </mxCell>
        <mxCell id="-qfLBwfiambPcsDSt4Ml-21" value="" style="endArrow=open;html=1;rounded=0;align=center;verticalAlign=top;endFill=0;labelBackgroundColor=none;endSize=6;entryX=0.5;entryY=0;entryDx=0;entryDy=0;exitX=0.417;exitY=1.025;exitDx=0;exitDy=0;exitPerimeter=0;" edge="1" parent="-qfLBwfiambPcsDSt4Ml-2" source="-qfLBwfiambPcsDSt4Ml-8" target="-qfLBwfiambPcsDSt4Ml-9">
          <mxGeometry relative="1" as="geometry">
            <mxPoint x="200" y="360" as="sourcePoint" />
            <mxPoint x="200" y="398" as="targetPoint" />
          </mxGeometry>
        </mxCell>
        <mxCell id="-qfLBwfiambPcsDSt4Ml-22" value="" style="endArrow=open;html=1;rounded=0;align=center;verticalAlign=top;endFill=0;labelBackgroundColor=none;endSize=6;entryX=0.5;entryY=0;entryDx=0;entryDy=0;exitX=0.5;exitY=1;exitDx=0;exitDy=0;" edge="1" parent="-qfLBwfiambPcsDSt4Ml-2" source="-qfLBwfiambPcsDSt4Ml-9" target="-qfLBwfiambPcsDSt4Ml-10">
          <mxGeometry relative="1" as="geometry">
            <mxPoint x="200" y="440" as="sourcePoint" />
            <mxPoint x="200" y="479" as="targetPoint" />
          </mxGeometry>
        </mxCell>
        <mxCell id="-qfLBwfiambPcsDSt4Ml-23" value="" style="endArrow=open;html=1;rounded=0;align=center;verticalAlign=top;endFill=0;labelBackgroundColor=none;endSize=6;entryX=0.5;entryY=0;entryDx=0;entryDy=0;exitX=0.5;exitY=1;exitDx=0;exitDy=0;" edge="1" parent="-qfLBwfiambPcsDSt4Ml-2" source="-qfLBwfiambPcsDSt4Ml-10" target="-qfLBwfiambPcsDSt4Ml-11">
          <mxGeometry relative="1" as="geometry">
            <mxPoint x="210" y="520" as="sourcePoint" />
            <mxPoint x="210" y="555" as="targetPoint" />
          </mxGeometry>
        </mxCell>
        <mxCell id="-qfLBwfiambPcsDSt4Ml-24" value="" style="endArrow=open;html=1;rounded=0;align=center;verticalAlign=top;endFill=0;labelBackgroundColor=none;endSize=6;entryX=0.5;entryY=0;entryDx=0;entryDy=0;exitX=0.5;exitY=1;exitDx=0;exitDy=0;" edge="1" parent="-qfLBwfiambPcsDSt4Ml-2" source="-qfLBwfiambPcsDSt4Ml-11" target="-qfLBwfiambPcsDSt4Ml-15">
          <mxGeometry relative="1" as="geometry">
            <mxPoint x="200" y="600" as="sourcePoint" />
            <mxPoint x="200" y="635" as="targetPoint" />
          </mxGeometry>
        </mxCell>
        <mxCell id="-qfLBwfiambPcsDSt4Ml-25" value="" style="endArrow=open;html=1;rounded=0;align=center;verticalAlign=top;endFill=0;labelBackgroundColor=none;endSize=6;exitX=0;exitY=0.5;exitDx=0;exitDy=0;entryX=1;entryY=0.5;entryDx=0;entryDy=0;" edge="1" parent="-qfLBwfiambPcsDSt4Ml-2" source="-qfLBwfiambPcsDSt4Ml-15" target="-qfLBwfiambPcsDSt4Ml-14">
          <mxGeometry relative="1" as="geometry">
            <mxPoint x="110" y="710" as="sourcePoint" />
            <mxPoint x="70" y="705" as="targetPoint" />
          </mxGeometry>
        </mxCell>
        <mxCell id="-qfLBwfiambPcsDSt4Ml-26" value="" style="endArrow=open;html=1;rounded=0;align=center;verticalAlign=top;endFill=0;labelBackgroundColor=none;endSize=6;exitX=1;exitY=0.5;exitDx=0;exitDy=0;entryX=1;entryY=0.5;entryDx=0;entryDy=0;" edge="1" parent="-qfLBwfiambPcsDSt4Ml-2" source="-qfLBwfiambPcsDSt4Ml-15" target="-qfLBwfiambPcsDSt4Ml-6">
          <mxGeometry relative="1" as="geometry">
            <mxPoint x="235" y="700" as="sourcePoint" />
            <mxPoint x="340" y="320" as="targetPoint" />
            <Array as="points">
              <mxPoint x="320" y="715" />
              <mxPoint x="320" y="180" />
            </Array>
          </mxGeometry>
        </mxCell>
        <mxCell id="-qfLBwfiambPcsDSt4Ml-27" value="" style="endArrow=open;html=1;rounded=0;align=center;verticalAlign=top;endFill=0;labelBackgroundColor=none;endSize=6;exitX=0.442;exitY=1.05;exitDx=0;exitDy=0;exitPerimeter=0;" edge="1" parent="-qfLBwfiambPcsDSt4Ml-2" source="-qfLBwfiambPcsDSt4Ml-13">
          <mxGeometry relative="1" as="geometry">
            <mxPoint x="80" y="450" as="sourcePoint" />
            <mxPoint x="58" y="700" as="targetPoint" />
          </mxGeometry>
        </mxCell>
        <mxCell id="-qfLBwfiambPcsDSt4Ml-28" value="" style="endArrow=open;html=1;rounded=0;align=center;verticalAlign=top;endFill=0;labelBackgroundColor=none;endSize=6;entryX=0.5;entryY=0;entryDx=0;entryDy=0;exitX=0.5;exitY=1;exitDx=0;exitDy=0;" edge="1" parent="-qfLBwfiambPcsDSt4Ml-2" source="-qfLBwfiambPcsDSt4Ml-4" target="-qfLBwfiambPcsDSt4Ml-12">
          <mxGeometry relative="1" as="geometry">
            <mxPoint x="210" y="270" as="sourcePoint" />
            <mxPoint x="211" y="320" as="targetPoint" />
          </mxGeometry>
        </mxCell>
        <mxCell id="-qfLBwfiambPcsDSt4Ml-29" value="" style="endArrow=open;html=1;rounded=0;align=center;verticalAlign=top;endFill=0;labelBackgroundColor=none;endSize=6;entryX=0.417;entryY=0.025;entryDx=0;entryDy=0;exitX=0.5;exitY=1;exitDx=0;exitDy=0;entryPerimeter=0;" edge="1" parent="-qfLBwfiambPcsDSt4Ml-2" source="-qfLBwfiambPcsDSt4Ml-12" target="-qfLBwfiambPcsDSt4Ml-13">
          <mxGeometry relative="1" as="geometry">
            <mxPoint x="200" y="280" as="sourcePoint" />
            <mxPoint x="201" y="330" as="targetPoint" />
          </mxGeometry>
        </mxCell>
        <mxCell id="-qfLBwfiambPcsDSt4Ml-30" value="" style="endArrow=open;html=1;rounded=0;align=center;verticalAlign=top;endFill=0;labelBackgroundColor=none;endSize=6;entryX=1;entryY=0.5;entryDx=0;entryDy=0;exitX=0;exitY=0.5;exitDx=0;exitDy=0;" edge="1" parent="-qfLBwfiambPcsDSt4Ml-2" source="-qfLBwfiambPcsDSt4Ml-10" target="-qfLBwfiambPcsDSt4Ml-12">
          <mxGeometry relative="1" as="geometry">
            <mxPoint x="200" y="590" as="sourcePoint" />
            <mxPoint x="200" y="625" as="targetPoint" />
            <Array as="points">
              <mxPoint x="140" y="565" />
              <mxPoint x="140" y="340" />
            </Array>
          </mxGeometry>
        </mxCell>
        <mxCell id="-qfLBwfiambPcsDSt4Ml-31" value="[ Xem lich su muon tra ]" style="text;html=1;align=center;verticalAlign=middle;resizable=0;points=[];autosize=1;strokeColor=none;fillColor=none;" vertex="1" parent="-qfLBwfiambPcsDSt4Ml-2">
          <mxGeometry x="60" y="530" width="150" height="30" as="geometry" />
        </mxCell>
        <mxCell id="-qfLBwfiambPcsDSt4Ml-32" value="[ else ]" style="text;html=1;align=center;verticalAlign=middle;resizable=0;points=[];autosize=1;strokeColor=none;fillColor=none;" vertex="1" parent="-qfLBwfiambPcsDSt4Ml-2">
          <mxGeometry x="150" y="590" width="60" height="30" as="geometry" />
        </mxCell>
        <mxCell id="-qfLBwfiambPcsDSt4Ml-33" value="[ else ]" style="text;html=1;align=center;verticalAlign=middle;resizable=0;points=[];autosize=1;strokeColor=none;fillColor=none;" vertex="1" parent="-qfLBwfiambPcsDSt4Ml-2">
          <mxGeometry x="110" y="690" width="60" height="30" as="geometry" />
        </mxCell>
        <mxCell id="-qfLBwfiambPcsDSt4Ml-34" value="[ Tim kiem lan nua ]" style="text;html=1;align=center;verticalAlign=middle;resizable=0;points=[];autosize=1;strokeColor=none;fillColor=none;" vertex="1" parent="-qfLBwfiambPcsDSt4Ml-2">
          <mxGeometry x="150" y="730" width="130" height="30" as="geometry" />
        </mxCell>
        <mxCell id="-qfLBwfiambPcsDSt4Ml-35" value="" style="endArrow=open;html=1;rounded=0;align=center;verticalAlign=top;endFill=0;labelBackgroundColor=none;endSize=6;entryX=0;entryY=0.5;entryDx=0;entryDy=0;exitX=1;exitY=0.5;exitDx=0;exitDy=0;" edge="1" parent="-qfLBwfiambPcsDSt4Ml-1" source="-qfLBwfiambPcsDSt4Ml-10" target="-qfLBwfiambPcsDSt4Ml-45">
          <mxGeometry relative="1" as="geometry">
            <mxPoint x="200" y="680" as="sourcePoint" />
            <mxPoint x="200" y="720" as="targetPoint" />
          </mxGeometry>
        </mxCell>
        <mxCell id="-qfLBwfiambPcsDSt4Ml-36" value="NV tiếp tân" style="swimlane;startSize=20;html=1;" vertex="1" parent="-qfLBwfiambPcsDSt4Ml-1">
          <mxGeometry x="390" y="20" width="230" height="780" as="geometry" />
        </mxCell>
        <mxCell id="-qfLBwfiambPcsDSt4Ml-37" value="Xem them chi tiet trong AD cua &#39;NV tiep tan&#39;" style="shape=note2;boundedLbl=1;whiteSpace=wrap;html=1;size=25;verticalAlign=top;align=center;" vertex="1" parent="-qfLBwfiambPcsDSt4Ml-36">
          <mxGeometry x="30" y="60" width="140" height="70" as="geometry" />
        </mxCell>
        <mxCell id="-qfLBwfiambPcsDSt4Ml-38" value="Dang ki thanh vien" style="html=1;align=center;verticalAlign=top;rounded=1;absoluteArcSize=1;arcSize=120;dashed=0;whiteSpace=wrap;" vertex="1" parent="-qfLBwfiambPcsDSt4Ml-36">
          <mxGeometry x="30" y="220" width="120" height="40" as="geometry" />
        </mxCell>
        <mxCell id="-qfLBwfiambPcsDSt4Ml-39" value="" style="ellipse;html=1;shape=endState;fillColor=strokeColor;" vertex="1" parent="-qfLBwfiambPcsDSt4Ml-36">
          <mxGeometry x="85" y="310" width="30" height="30" as="geometry" />
        </mxCell>
        <mxCell id="-qfLBwfiambPcsDSt4Ml-40" value="[ Muon sach]" style="text;html=1;align=center;verticalAlign=middle;resizable=0;points=[];autosize=1;strokeColor=none;fillColor=none;" vertex="1" parent="-qfLBwfiambPcsDSt4Ml-36">
          <mxGeometry x="30" y="570" width="90" height="30" as="geometry" />
        </mxCell>
        <mxCell id="-qfLBwfiambPcsDSt4Ml-41" value="" style="endArrow=none;startArrow=none;endFill=0;startFill=0;endSize=8;html=1;verticalAlign=bottom;dashed=1;labelBackgroundColor=none;dashPattern=10 10;rounded=0;entryX=0.5;entryY=1;entryDx=0;entryDy=0;entryPerimeter=0;exitX=0.583;exitY=0.025;exitDx=0;exitDy=0;exitPerimeter=0;" edge="1" parent="-qfLBwfiambPcsDSt4Ml-36" source="-qfLBwfiambPcsDSt4Ml-38" target="-qfLBwfiambPcsDSt4Ml-37">
          <mxGeometry width="160" relative="1" as="geometry">
            <mxPoint x="332" y="563" as="sourcePoint" />
            <mxPoint x="330" y="500" as="targetPoint" />
          </mxGeometry>
        </mxCell>
        <mxCell id="-qfLBwfiambPcsDSt4Ml-42" value="" style="endArrow=open;html=1;rounded=0;align=center;verticalAlign=top;endFill=0;labelBackgroundColor=none;endSize=6;entryX=0.5;entryY=0;entryDx=0;entryDy=0;exitX=0.583;exitY=1.05;exitDx=0;exitDy=0;exitPerimeter=0;" edge="1" parent="-qfLBwfiambPcsDSt4Ml-36" source="-qfLBwfiambPcsDSt4Ml-38" target="-qfLBwfiambPcsDSt4Ml-39">
          <mxGeometry relative="1" as="geometry">
            <mxPoint x="-190" y="280" as="sourcePoint" />
            <mxPoint x="-189" y="330" as="targetPoint" />
          </mxGeometry>
        </mxCell>
        <mxCell id="-qfLBwfiambPcsDSt4Ml-43" value="Thành viên" style="swimlane;startSize=20;html=1;" vertex="1" parent="-qfLBwfiambPcsDSt4Ml-1">
          <mxGeometry x="620" y="20" width="200" height="780" as="geometry" />
        </mxCell>
        <mxCell id="-qfLBwfiambPcsDSt4Ml-44" value="Xem them chi tiet trong AD cua &#39;Thanh vien&#39;" style="shape=note2;boundedLbl=1;whiteSpace=wrap;html=1;size=25;verticalAlign=top;align=center;" vertex="1" parent="-qfLBwfiambPcsDSt4Ml-43">
          <mxGeometry x="15" y="410" width="170" height="70" as="geometry" />
        </mxCell>
        <mxCell id="-qfLBwfiambPcsDSt4Ml-45" value="Xu ly muon sach" style="html=1;align=center;verticalAlign=top;rounded=1;absoluteArcSize=1;arcSize=120;dashed=0;whiteSpace=wrap;" vertex="1" parent="-qfLBwfiambPcsDSt4Ml-43">
          <mxGeometry x="60" y="545" width="120" height="40" as="geometry" />
        </mxCell>
        <mxCell id="-qfLBwfiambPcsDSt4Ml-46" value="" style="ellipse;html=1;shape=endState;fillColor=strokeColor;" vertex="1" parent="-qfLBwfiambPcsDSt4Ml-43">
          <mxGeometry x="85" y="630" width="30" height="30" as="geometry" />
        </mxCell>
        <mxCell id="-qfLBwfiambPcsDSt4Ml-47" value="" style="endArrow=none;startArrow=none;endFill=0;startFill=0;endSize=8;html=1;verticalAlign=bottom;dashed=1;labelBackgroundColor=none;dashPattern=10 10;rounded=0;entryX=0.5;entryY=1;entryDx=0;entryDy=0;entryPerimeter=0;exitX=0.35;exitY=-0.05;exitDx=0;exitDy=0;exitPerimeter=0;" edge="1" parent="-qfLBwfiambPcsDSt4Ml-43" source="-qfLBwfiambPcsDSt4Ml-45" target="-qfLBwfiambPcsDSt4Ml-44">
          <mxGeometry width="160" relative="1" as="geometry">
            <mxPoint x="-280" y="330" as="sourcePoint" />
            <mxPoint x="-120" y="330" as="targetPoint" />
          </mxGeometry>
        </mxCell>
        <mxCell id="-qfLBwfiambPcsDSt4Ml-48" value="" style="endArrow=open;html=1;rounded=0;align=center;verticalAlign=top;endFill=0;labelBackgroundColor=none;endSize=6;entryX=0.5;entryY=0;entryDx=0;entryDy=0;exitX=0.325;exitY=0.975;exitDx=0;exitDy=0;exitPerimeter=0;" edge="1" parent="-qfLBwfiambPcsDSt4Ml-43" source="-qfLBwfiambPcsDSt4Ml-45" target="-qfLBwfiambPcsDSt4Ml-46">
          <mxGeometry relative="1" as="geometry">
            <mxPoint x="-410" y="670" as="sourcePoint" />
            <mxPoint x="-410" y="710" as="targetPoint" />
          </mxGeometry>
        </mxCell>
        <mxCell id="-qfLBwfiambPcsDSt4Ml-49" value="" style="endArrow=open;html=1;rounded=0;align=center;verticalAlign=top;endFill=0;labelBackgroundColor=none;endSize=6;exitX=0.5;exitY=1;exitDx=0;exitDy=0;" edge="1" parent="1" source="-qfLBwfiambPcsDSt4Ml-3">
          <mxGeometry relative="1" as="geometry">
            <mxPoint x="700" y="382" as="sourcePoint" />
            <mxPoint x="470" y="280" as="targetPoint" />
          </mxGeometry>
        </mxCell>
        <mxCell id="-qfLBwfiambPcsDSt4Ml-50" value="" style="endArrow=open;html=1;rounded=0;align=center;verticalAlign=top;endFill=0;labelBackgroundColor=none;endSize=6;entryX=0.5;entryY=0;entryDx=0;entryDy=0;" edge="1" parent="1" target="-qfLBwfiambPcsDSt4Ml-4">
          <mxGeometry relative="1" as="geometry">
            <mxPoint x="470" y="280" as="sourcePoint" />
            <mxPoint x="660" y="310" as="targetPoint" />
          </mxGeometry>
        </mxCell>
        <mxCell id="-qfLBwfiambPcsDSt4Ml-51" value="" style="endArrow=open;html=1;rounded=0;align=center;verticalAlign=top;endFill=0;labelBackgroundColor=none;endSize=6;entryX=0.5;entryY=0;entryDx=0;entryDy=0;" edge="1" parent="1" target="-qfLBwfiambPcsDSt4Ml-38">
          <mxGeometry relative="1" as="geometry">
            <mxPoint x="470" y="280" as="sourcePoint" />
            <mxPoint x="520" y="400" as="targetPoint" />
          </mxGeometry>
        </mxCell>
      </root>
    </mxGraphModel>
  </diagram>
</mxfile>
